<?xml version="1.0" encoding="iso-8859-1"?>
<!-- Generator: Adobe Illustrator 18.1.1, SVG Export Plug-In . SVG Version: 6.00 Build 0)  -->
<svg xmlns="http://www.w3.org/2000/svg" xmlns:xlink="http://www.w3.org/1999/xlink" version="1.1" id="Capa_1" x="0px" y="0px" viewBox="0 0 23.995 23.995" style="enable-background:new 0 0 23.995 23.995;" xml:space="preserve" width="512px" height="512px">
<g>
	<g id="c114_arrow">
		<path d="M23.995,20.56L23.994,6.693c0-1.799-1.387-3.256-3.1-3.256c-1.708,0-3.098,1.457-3.098,3.256v6.754    L5.289,0.941C4.078-0.273,2.117-0.273,0.908,0.939c-1.211,1.212-1.211,3.172,0,4.382l12.447,12.446H6.629    c-1.825,0-3.303,1.387-3.303,3.1c0,1.709,1.478,3.098,3.303,3.098l14.058-0.002c1.826,0.002,3.305-1.387,3.306-3.096    c-0.001-0.045-0.014-0.083-0.016-0.128C23.98,20.678,23.995,20.62,23.995,20.56z" fill="#0972bd"/>
	</g>
</g>
<g>
</g>
<g>
</g>
<g>
</g>
<g>
</g>
<g>
</g>
<g>
</g>
<g>
</g>
<g>
</g>
<g>
</g>
<g>
</g>
<g>
</g>
<g>
</g>
<g>
</g>
<g>
</g>
<g>
</g>
</svg>
